<?xml version="1.0" encoding="UTF-8" standalone="no"?>
<svg
   viewBox="0 0 920.7605 901"
   width="920.7605"
   height="901"
   version="1.1"
   id="svg69"
   sodipodi:docname="logo-fiberpath.svg"
   inkscape:version="1.4.2 (ebf0e940d0, 2025-05-08)"
   xmlns:inkscape="http://www.inkscape.org/namespaces/inkscape"
   xmlns:sodipodi="http://sodipodi.sourceforge.net/DTD/sodipodi-0.dtd"
   xmlns="http://www.w3.org/2000/svg"
   xmlns:svg="http://www.w3.org/2000/svg">
  <sodipodi:namedview
     id="namedview69"
     pagecolor="#505050"
     bordercolor="#eeeeee"
     borderopacity="1"
     inkscape:showpageshadow="0"
     inkscape:pageopacity="0"
     inkscape:pagecheckerboard="0"
     inkscape:deskcolor="#505050"
     inkscape:zoom="0.65603796"
     inkscape:cx="-25.150984"
     inkscape:cy="87.647367"
     inkscape:window-width="1920"
     inkscape:window-height="1048"
     inkscape:window-x="1920"
     inkscape:window-y="0"
     inkscape:window-maximized="1"
     inkscape:current-layer="g67" />
  <defs
     id="defs1">
    <clipPath
       id="tube">
      <path
         d="M 315.66,236.66 969.15,214.5 v 0 l 1.23,-0.05 1.23,0.06 1.24,0.17 1.25,0.3 1.25,0.41 1.26,0.52 1.26,0.64 1.27,0.75 1.26,0.87 1.27,0.97 1.26,1.09 1.26,1.2 1.26,1.31 1.25,1.42 1.24,1.52 1.24,1.63 1.22,1.73 1.22,1.83 1.2,1.94 1.2,2.03 1.18,2.12 1.16,2.22 1.15,2.31 1.13,2.41 1.11,2.48 1.09,2.58 1.07,2.65 1.05,2.73 1.03,2.81 1,2.89 0.98,2.95 0.96,3.03 0.92,3.09 0.9,3.15 0.87,3.21 0.85,3.26 0.81,3.32 0.78,3.37 0.75,3.41 0.72,3.46 0.68,3.49 0.65,3.53 0.62,3.57 0.58,3.59 0.54,3.61 0.51,3.64 0.47,3.66 0.44,3.67 0.4,3.68 0.36,3.69 0.32,3.69 0.28,3.7 0.24,3.68 0.21,3.69 0.16,3.67 0.13,3.65 0.09,3.64 0.04,3.61 0.01,3.59 -0.03,3.57 -0.07,3.52 -0.12,3.5 -0.15,3.45 -0.19,3.41 -0.23,3.36 -0.27,3.32 -0.3,3.26 -0.35,3.21 -0.38,3.14 -0.43,3.09 -0.45,3.02 -0.5,2.95 -0.53,2.88 -0.57,2.81 -0.6,2.72 -0.64,2.65 -0.67,2.57 -0.71,2.48 -0.73,2.4 -0.77,2.31 -0.8,2.21 -0.84,2.12 -0.86,2.03 -0.89,1.92 -0.91,1.83 -0.95,1.72 -0.97,1.63 -0.99,1.51 -1.02,1.41 -1.04,1.3 -1.07,1.2 -1.08,1.08 -1.11,0.97 -1.12,0.86 -1.14,0.74 -1.16,0.64 -1.17,0.51 -1.19,0.4 -1.2,0.29 -1.21,0.17 v 0 l -646.51,97.84 v 0 l -1.62,0.07 -1.63,-0.08 -1.64,-0.23 -1.65,-0.39 -1.66,-0.54 -1.66,-0.7 -1.67,-0.84 -1.67,-0.99 -1.67,-1.15 -1.67,-1.29 -1.67,-1.44 -1.67,-1.59 -1.66,-1.73 -1.65,-1.87 -1.65,-2.01 -1.63,-2.16 -1.62,-2.28 -1.61,-2.43 -1.59,-2.55 -1.58,-2.69 -1.56,-2.81 -1.54,-2.93 -1.51,-3.06 -1.5,-3.17 -1.47,-3.29 -1.44,-3.4 -1.42,-3.51 -1.39,-3.62 -1.36,-3.71 -1.32,-3.82 -1.3,-3.9 -1.26,-4 -1.22,-4.08 -1.19,-4.17 -1.16,-4.24 -1.11,-4.32 -1.07,-4.38 -1.03,-4.46 -0.99,-4.51 -0.95,-4.57 -0.91,-4.62 -0.86,-4.67 -0.81,-4.71 -0.77,-4.74 -0.72,-4.79 -0.67,-4.81 -0.63,-4.83 -0.57,-4.85 -0.53,-4.87 -0.47,-4.88 -0.43,-4.88 -0.37,-4.88 -0.32,-4.88 -0.28,-4.86 -0.21,-4.86 -0.17,-4.83 -0.12,-4.81 -0.06,-4.78 -0.01,-4.74 0.05,-4.71 0.09,-4.67 0.15,-4.61 0.2,-4.57 0.25,-4.51 0.31,-4.45 0.35,-4.38 0.41,-4.31 0.45,-4.24 0.51,-4.16 0.56,-4.08 0.61,-3.99 0.65,-3.9 0.71,-3.81 0.75,-3.71 0.79,-3.61 0.85,-3.5 0.88,-3.39 0.94,-3.29 0.97,-3.16 1.02,-3.05 1.06,-2.93 1.1,-2.8 1.13,-2.68 1.18,-2.55 1.21,-2.41 1.25,-2.28 1.28,-2.14 1.32,-2.01 1.34,-1.86 1.38,-1.72 1.41,-1.58 1.43,-1.43 1.46,-1.29 1.49,-1.13 1.51,-0.99 1.53,-0.83 1.55,-0.68 1.57,-0.54 1.59,-0.37 z"
         id="path1" />
    </clipPath>
  </defs>
  <rect
     width="919.88489"
     height="900.12439"
     fill="#ffffff"
     id="rect1"
     style="stroke:#090909;stroke-width:0.875601;stroke-opacity:1"
     x="0.4378005"
     y="0.4378005" />
  <rect
     style="fill:#090909;fill-opacity:1;stroke:#090909;stroke-width:0.220997;stroke-dasharray:none;stroke-opacity:1"
     id="rect70-7"
     width="37.467182"
     height="22.170509"
     x="773.85602"
     y="455.06256" />
  <rect
     style="fill:#090909;fill-opacity:1;stroke:#090909;stroke-width:0.18808;stroke-dasharray:none;stroke-opacity:1"
     id="rect70-7-7"
     width="48.931999"
     height="12.295463"
     x="768.37793"
     y="469.47638"
     rx="1" />
  <rect
     style="fill:#090909;fill-opacity:1;stroke:#090909;stroke-width:0.18808;stroke-dasharray:none;stroke-opacity:1"
     id="rect70-7-7-3"
     width="48.931999"
     height="12.295463"
     x="123.42938"
     y="557.54767"
     rx="1" />
  <text
     x="96.401764"
     y="608.35138"
     font-family="'DejaVu Sans Mono'"
     font-weight="bold"
     font-size="87.0312px"
     fill="#090909"
     id="text1"
     transform="scale(0.84229004,1.1872395)"
     style="stroke-width:1.40373">0</text>
  <text
     x="148.33974"
     y="608.35138"
     font-family="'DejaVu Sans Mono'"
     font-weight="bold"
     font-size="87.0312px"
     fill="#090909"
     id="text2"
     transform="scale(0.84229004,1.1872395)"
     style="stroke-width:1.40373">1</text>
  <text
     x="200.27773"
     y="608.35138"
     font-family="'DejaVu Sans Mono'"
     font-weight="bold"
     font-size="87.0312px"
     fill="#090909"
     id="text3"
     transform="scale(0.84229004,1.1872395)"
     style="stroke-width:1.40373">1</text>
  <text
     x="252.2157"
     y="608.35138"
     font-family="'DejaVu Sans Mono'"
     font-weight="bold"
     font-size="87.0312px"
     fill="#090909"
     id="text4"
     transform="scale(0.84229004,1.1872395)"
     style="stroke-width:1.40373">0</text>
  <text
     x="304.15369"
     y="608.35138"
     font-family="'DejaVu Sans Mono'"
     font-weight="bold"
     font-size="87.0312px"
     fill="#090909"
     id="text5"
     transform="scale(0.84229004,1.1872395)"
     style="stroke-width:1.40373">0</text>
  <text
     x="356.09164"
     y="608.35138"
     font-family="'DejaVu Sans Mono'"
     font-weight="bold"
     font-size="87.0312px"
     fill="#090909"
     id="text6"
     transform="scale(0.84229004,1.1872395)"
     style="stroke-width:1.40373">1</text>
  <text
     x="408.0296"
     y="608.35138"
     font-family="'DejaVu Sans Mono'"
     font-weight="bold"
     font-size="87.0312px"
     fill="#090909"
     id="text7"
     transform="scale(0.84229004,1.1872395)"
     style="stroke-width:1.40373">0</text>
  <text
     x="459.96759"
     y="608.35138"
     font-family="'DejaVu Sans Mono'"
     font-weight="bold"
     font-size="87.0312px"
     fill="#090909"
     id="text8"
     transform="scale(0.84229004,1.1872395)"
     style="stroke-width:1.40373">1</text>
  <rect
     x="433.57782"
     y="648.6557"
     width="28"
     height="73.017967"
     fill="#090909"
     id="rect9"
     style="stroke-width:1.18499" />
  <rect
     x="465.13608"
     y="648.84625"
     width="14"
     height="69.487885"
     fill="#090909"
     id="rect10"
     style="stroke-width:1.15599" />
  <rect
     x="483.5256"
     y="648.75702"
     width="14"
     height="66.820358"
     fill="#090909"
     id="rect10-5"
     style="stroke-width:1.13358" />
  <rect
     x="503.97784"
     y="648.6557"
     width="34"
     height="62.508984"
     fill="#090909"
     id="rect11"
     style="stroke-width:1.0964" />
  <rect
     x="541.9942"
     y="648.84625"
     width="16"
     height="57.928143"
     fill="#090909"
     id="rect12"
     style="stroke-width:1.05546" />
  <rect
     x="584.96558"
     y="649.0473"
     width="14.475698"
     height="51.830933"
     fill="#090909"
     id="rect12-9"
     style="stroke-width:0.949627" />
  <rect
     x="560.23895"
     y="649.0368"
     width="23.023203"
     height="53.616768"
     fill="#090909"
     id="rect13"
     style="stroke-width:1.01543" />
  <path
     d="m 165.91784,549.99569 646.51,-97.84"
     stroke="#090909"
     stroke-width="5.5"
     fill="none"
     stroke-linecap="round"
     id="path13" />
  <path
     d="m 137.23784,239.31569 653.49,-22.16"
     stroke="#090909"
     stroke-width="5.5"
     fill="none"
     stroke-linecap="round"
     id="path14" />
  <path
     d="m 813.63784,451.98569 1.2,-0.29 1.19,-0.4 1.17,-0.51 1.16,-0.64 1.14,-0.74 1.12,-0.86 1.11,-0.97 1.08,-1.08 1.07,-1.2 1.04,-1.3 1.02,-1.41 0.99,-1.51 0.97,-1.63 0.95,-1.72 0.91,-1.83 0.89,-1.92 0.86,-2.03 0.84,-2.12 0.8,-2.21 0.77,-2.31 0.73,-2.4 0.71,-2.48 0.67,-2.57 0.64,-2.65 0.6,-2.72 0.57,-2.81 0.53,-2.88 0.5,-2.95 0.45,-3.02 0.43,-3.09 0.38,-3.14 0.35,-3.21 0.3,-3.26 0.27,-3.32 0.23,-3.36 0.19,-3.41 0.15,-3.45 0.12,-3.5 0.07,-3.52 0.03,-3.57 -0.01,-3.59 -0.04,-3.61 -0.09,-3.64 -0.13,-3.65 -0.16,-3.67 -0.21,-3.69 -0.24,-3.68 -0.28,-3.7 -0.32,-3.69 -0.36,-3.69 -0.4,-3.68 -0.44,-3.67 -0.47,-3.66 -0.51,-3.64 -0.54,-3.61 -0.58,-3.59 -0.62,-3.57 -0.65,-3.53 -0.68,-3.49 -0.72,-3.46 -0.75,-3.41 -0.78,-3.37 -0.81,-3.32 -0.85,-3.26 -0.87,-3.21 -0.9,-3.15 -0.92,-3.09 -0.96,-3.03 -0.98,-2.95 -1,-2.89 -1.03,-2.81 -1.05,-2.73 -1.07,-2.65 -1.09,-2.58 -1.11,-2.48 -1.13,-2.41 -1.15,-2.31 -1.16,-2.22 -1.18,-2.12 -1.2,-2.03 -1.2,-1.94 -1.22,-1.83 -1.22,-1.73 -1.24,-1.63 -1.24,-1.52 -1.25,-1.42 -1.26,-1.31 -1.26,-1.2 -1.26,-1.09 -1.27,-0.97 -1.26,-0.87 -1.27,-0.75 -1.26,-0.64 -1.26,-0.52 -1.25,-0.41 -1.25,-0.3 -1.24,-0.17 -1.23,-0.06 -1.23,0.05"
     stroke="#090909"
     stroke-width="5.5"
     fill="none"
     stroke-linecap="round"
     id="path15" />
  <g
     clip-path="url(#tube)"
     id="g67"
     transform="translate(-178.42216,2.6556887)">
    <path
       d="m 352.33,545.72 7.8,-2.99 7.59,-4.32 7.33,-5.62 7.03,-6.86 6.71,-8.05 6.34,-9.16 5.97,-10.19 5.56,-11.14 5.13,-11.98 4.69,-12.71 4.24,-13.35 3.78,-13.85 3.31,-14.23 2.85,-14.5 2.39,-14.64 1.93,-14.64 1.51,-14.52 1.07,-14.28 0.68,-13.91 0.3,-13.43 -0.05,-12.82 -0.36,-12.1 -0.66,-11.29 -0.91,-10.38 -1.12,-9.38 -1.29,-8.31 -1.43,-7.15 -1.53,-5.96 -1.57,-4.71 -1.58,-3.42 -1.54,-2.11 -1.46,-0.79"
       stroke="#090909"
       stroke-width="3"
       fill="none"
       stroke-linejoin="round"
       id="path16" />
    <path
       d="m 562.39,514.36 7.55,-1.95 7.37,-3.2 7.15,-4.41 6.91,-5.58 6.62,-6.71 6.32,-7.78 5.97,-8.77 5.62,-9.69 5.24,-10.53 4.84,-11.26 4.43,-11.91 4.01,-12.44 3.58,-12.87 3.16,-13.18 2.74,-13.38 2.31,-13.47 1.91,-13.43 1.51,-13.27 1.13,-13.02 0.77,-12.63 0.43,-12.15 0.12,-11.56 -0.16,-10.88 -0.41,-10.09 -0.63,-9.23 -0.82,-8.28 -0.96,-7.28 -1.07,-6.2 -1.14,-5.09 -1.17,-3.93 -1.16,-2.75 -1.12,-1.53 -1.03,-0.33"
       stroke="#090909"
       stroke-width="3"
       fill="none"
       stroke-linejoin="round"
       id="path17" />
    <path
       d="m 780.17,481.28 7.11,-2.2 6.94,-3.32 6.74,-4.43 6.49,-5.47 6.23,-6.49 5.94,-7.43 5.62,-8.32 5.28,-9.13 4.94,-9.85 4.57,-10.5 4.19,-11.04 3.81,-11.5 3.42,-11.85 3.03,-12.1 2.65,-12.24 2.27,-12.28 1.9,-12.2 1.54,-12.04 1.21,-11.75 0.88,-11.37 0.59,-10.9 0.31,-10.33 0.07,-9.67 -0.15,-8.93 -0.34,-8.12 -0.49,-7.24 -0.61,-6.31 -0.7,-5.31 -0.76,-4.28 -0.76,-3.23 -0.75,-2.14 -0.69,-1.04"
       stroke="#090909"
       stroke-width="3"
       fill="none"
       stroke-linejoin="round"
       id="path18" />
    <path
       d="m 376.39,498.5 5.44,-11.54 5,-12.36 4.56,-13.07 4.09,-13.66 3.63,-14.13 3.16,-14.49 2.69,-14.7 2.22,-14.8 1.78,-14.77 1.34,-14.6 0.92,-14.32 0.52,-13.9 0.15,-13.37 -0.19,-12.72 -0.51,-11.97 -0.78,-11.11 -1.03,-10.16 -1.23,-9.12 -1.39,-8.01 -1.52,-6.83 -1.59,-5.6 -1.63,-4.33 -1.62,-3.02 -1.57,-1.68 -1.48,-0.35"
       stroke="#090909"
       stroke-width="3"
       fill="none"
       stroke-linejoin="round"
       id="path19" />
    <path
       d="m 538.02,517.92 7.54,-2.39 7.35,-3.64 7.12,-4.85 6.85,-6.03 6.56,-7.15 6.24,-8.2 5.89,-9.18 5.51,-10.09 5.13,-10.9 4.72,-11.61 4.31,-12.23 3.87,-12.73 3.45,-13.13 3.02,-13.41 2.58,-13.57 2.17,-13.61 1.76,-13.54 1.36,-13.35 0.98,-13.04 0.63,-12.63 0.29,-12.1 -0.01,-11.46 -0.29,-10.75 -0.53,-9.92 -0.74,-9.02 -0.92,-8.05 -1.05,-7 -1.15,-5.9 -1.2,-4.76 -1.23,-3.58 -1.2,-2.37 -1.14,-1.14"
       stroke="#090909"
       stroke-width="3"
       fill="none"
       stroke-linejoin="round"
       id="path20" />
    <path
       d="m 755.67,484.74 7.11,-2.6 6.92,-3.74 6.69,-4.83 6.45,-5.88 6.17,-6.89 5.87,-7.82 5.54,-8.7 5.19,-9.49 4.84,-10.2 4.45,-10.81 4.08,-11.34 3.69,-11.77 3.29,-12.09 2.9,-12.3 2.51,-12.41 2.13,-12.42 1.77,-12.31 1.4,-12.09 1.07,-11.78 0.76,-11.36 0.46,-10.85 0.19,-10.24 -0.05,-9.55 -0.26,-8.78 -0.44,-7.93 -0.58,-7.02 -0.7,-6.05 -0.77,-5.04 -0.81,-3.98 -0.82,-2.9 -0.78,-1.79 -0.71,-0.68"
       stroke="#090909"
       stroke-width="3"
       fill="none"
       stroke-linejoin="round"
       id="path21" />
    <path
       d="m 966.21,453.24 6.84,-1.71 6.68,-2.74 6.5,-3.76 6.29,-4.73 6.05,-5.67 5.79,-6.55 5.52,-7.38 5.21,-8.15"
       stroke="#090909"
       stroke-width="3"
       fill="none"
       stroke-linejoin="round"
       id="path22" />
    <path
       d="m 381.26,387.27 1.61,-14.88 1.18,-14.66 0.76,-14.34 0.37,-13.87 v -13.3 l -0.34,-12.61 -0.64,-11.81 -0.92,-10.92 -1.14,-9.92 -1.34,-8.85 -1.48,-7.7 -1.6,-6.5 -1.66,-5.23 -1.68,-3.93 -1.66,-2.6 -1.6,-1.25"
       stroke="#090909"
       stroke-width="3"
       fill="none"
       stroke-linejoin="round"
       id="path23" />
    <path
       d="m 513.66,521.33 7.53,-2.84 7.32,-4.08 7.07,-5.31 6.8,-6.47 6.5,-7.58 6.15,-8.63 5.8,-9.59 5.41,-10.48 5.01,-11.26 4.6,-11.96 4.18,-12.54 3.74,-13.02 3.3,-13.38 2.87,-13.62 2.44,-13.74 2.01,-13.75 1.61,-13.64 1.21,-13.41 0.83,-13.06 0.49,-12.6 0.15,-12.03 -0.14,-11.36 -0.42,-10.59 -0.65,-9.74 -0.84,-8.8 -1.02,-7.79 -1.13,-6.72 -1.22,-5.58 -1.27,-4.42 -1.27,-3.21 -1.24,-1.99 -1.17,-0.74"
       stroke="#090909"
       stroke-width="3"
       fill="none"
       stroke-linejoin="round"
       id="path24" />
    <path
       d="m 723.92,489.91 7.26,-1.85 7.1,-3.02 6.89,-4.14 6.66,-5.25 6.39,-6.29 6.11,-7.29 5.79,-8.22 5.45,-9.07 5.1,-9.84 4.73,-10.54 4.35,-11.13 3.95,-11.63 3.56,-12.03 3.16,-12.31 2.77,-12.5 2.37,-12.57 2,-12.54 1.62,-12.4 1.27,-12.15 0.94,-11.79 0.62,-11.34 0.33,-10.78 0.07,-10.14 -0.17,-9.42 -0.36,-8.6 -0.54,-7.73 -0.67,-6.79 -0.78,-5.78 -0.84,-4.75 -0.86,-3.67 -0.86,-2.56 -0.82,-1.44 -0.73,-0.31"
       stroke="#090909"
       stroke-width="3"
       fill="none"
       stroke-linejoin="round"
       id="path25" />
    <path
       d="m 941.6,456.86 6.83,-2.08 6.67,-3.12 6.48,-4.13 6.25,-5.11 6.01,-6.05 5.73,-6.92 5.45,-7.74 5.13,-8.48 4.81,-9.16 4.46,-9.75 4.12,-10.26 3.76,-10.68 3.41,-10.99 3.04,-11.23 2.69,-11.35 2.34,-11.39"
       stroke="#090909"
       stroke-width="3"
       fill="none"
       stroke-linejoin="round"
       id="path26" />
    <path
       d="m 481.63,526.58 7.69,-2 7.51,-3.28 7.28,-4.54 7.03,-5.76 6.74,-6.92 6.42,-8.02 6.06,-9.05 5.7,-10 5.31,-10.86 4.89,-11.63 4.47,-12.29 4.04,-12.85 3.6,-13.29 3.16,-13.62 2.72,-13.82 2.29,-13.91 1.86,-13.88 1.45,-13.72 1.06,-13.44 0.69,-13.06 0.34,-12.56 0.01,-11.95 -0.27,-11.23 -0.54,-10.43 -0.76,-9.54 -0.95,-8.57 -1.11,-7.52 -1.22,-6.41 -1.29,-5.26 -1.32,-4.06 -1.32,-2.84 -1.27,-1.59 -1.18,-0.33"
       stroke="#090909"
       stroke-width="3"
       fill="none"
       stroke-linejoin="round"
       id="path27" />
    <path
       d="m 699.45,493.49 7.26,-2.26 7.08,-3.43 6.86,-4.57 6.61,-5.66 6.34,-6.7 6.04,-7.69 5.71,-8.61 5.36,-9.44 5,-10.21 4.62,-10.86 4.23,-11.44 3.83,-11.91 3.43,-12.28 3.03,-12.53 2.62,-12.69 2.24,-12.72 1.85,-12.65 1.48,-12.47 1.14,-12.19 0.79,-11.79 0.49,-11.3 0.21,-10.7 -0.05,-10.03 -0.28,-9.26 -0.47,-8.42 -0.64,-7.51 -0.76,-6.54 -0.85,-5.51 -0.9,-4.44 -0.92,-3.34 -0.9,-2.22 -0.84,-1.08"
       stroke="#090909"
       stroke-width="3"
       fill="none"
       stroke-linejoin="round"
       id="path28" />
    <path
       d="m 917.01,460.35 6.82,-2.45 6.66,-3.5 6.44,-4.52 6.22,-5.49 5.95,-6.42 5.67,-7.29 5.37,-8.1 5.05,-8.83 4.72,-9.48 4.36,-10.06 4.01,-10.54 3.65,-10.93 3.29,-11.23 2.92,-11.43 2.56,-11.52 2.21,-11.52 1.87,-11.42 1.54,-11.23 1.23,-10.92 0.93,-10.54 0.66,-10.06 0.42,-9.5 0.19,-8.85 v -8.14"
       stroke="#090909"
       stroke-width="3"
       fill="none"
       stroke-linejoin="round"
       id="path29" />
    <path
       d="m 464.99,527.68 7.48,-3.74 7.25,-5 6.97,-6.21 6.67,-7.37 6.34,-8.46 5.98,-9.47 5.59,-10.41 5.19,-11.24 4.77,-11.99 4.34,-12.62 3.9,-13.14 3.46,-13.56 3.01,-13.84 2.57,-14.01 2.13,-14.06 1.71,-13.99 1.3,-13.79 0.91,-13.47 0.54,-13.04 0.19,-12.5 -0.12,-11.85 -0.41,-11.1 -0.65,-10.25 -0.88,-9.32 -1.05,-8.32 -1.2,-7.23 -1.3,-6.1 -1.35,-4.92 -1.38,-3.7 -1.36,-2.44 -1.29,-1.18"
       stroke="#090909"
       stroke-width="3"
       fill="none"
       stroke-linejoin="round"
       id="path30"
       sodipodi:nodetypes="cccccccccccccccccccccccccccccccc" />
    <path
       d="m 675,496.94 7.25,-2.68 7.05,-3.86 6.82,-4.98 6.57,-6.09 6.28,-7.11 5.96,-8.1 5.62,-8.99 5.27,-9.82 4.89,-10.55 4.51,-11.2 4.11,-11.74 3.7,-12.18 3.3,-12.52 2.89,-12.74 2.49,-12.86 2.09,-12.86 1.71,-12.75 1.34,-12.53 0.99,-12.21 0.67,-11.77 0.36,-11.25 0.07,-10.61 -0.17,-9.9 -0.39,-9.1 -0.57,-8.22 -0.73,-7.27 -0.84,-6.28 -0.92,-5.22 -0.97,-4.13 -0.96,-3 -0.94,-1.86 -0.86,-0.7"
       stroke="#090909"
       stroke-width="3"
       fill="none"
       stroke-linejoin="round"
       id="path31" />
    <path
       d="m 885.45,465.46 6.98,-1.75 6.81,-2.84 6.63,-3.88 6.42,-4.91 6.17,-5.87 5.89,-6.8 5.61,-7.66 5.29,-8.45 4.96,-9.17 4.62,-9.81 4.26,-10.36 3.9,-10.81 3.53,-11.18 3.17,-11.45 2.79,-11.62 2.44,-11.68 2.08,-11.65 1.74,-11.52 1.41,-11.27 1.1,-10.95 0.81,-10.53 0.54,-10.01 0.3,-9.41 0.08,-8.73 -0.1,-7.99 -0.26,-7.17 -0.39,-6.29 -0.48,-5.37 -0.53,-4.41 -0.57,-3.4 -0.55,-2.38 -0.51,-1.34 -0.44,-0.3"
       stroke="#090909"
       stroke-width="3"
       fill="none"
       stroke-linejoin="round"
       id="path32" />
    <path
       d="m 432.99,533.52 7.67,-2.91 7.45,-4.2 7.21,-5.46 6.91,-6.67 6.6,-7.81 6.25,-8.9 5.88,-9.89 5.49,-10.81 5.07,-11.62 4.65,-12.34 4.2,-12.94 3.76,-13.43 3.31,-13.81 2.86,-14.06 2.41,-14.19 1.98,-14.2 1.55,-14.08 1.15,-13.84 0.75,-13.49 0.39,-13.01 0.06,-12.42 -0.26,-11.73 -0.53,-10.95 -0.78,-10.05 -0.99,-9.1 -1.15,-8.04 -1.28,-6.94 -1.37,-5.77 -1.42,-4.56 -1.43,-3.32 -1.39,-2.05 -1.31,-0.76"
       stroke="#090909"
       stroke-width="3"
       fill="none"
       stroke-linejoin="round"
       id="path33" />
    <path
       d="m 643.16,502.13 7.4,-1.9 7.23,-3.1 7.03,-4.28 6.78,-5.41 6.51,-6.51 6.21,-7.53 5.88,-8.49 5.54,-9.38 5.17,-10.19 4.78,-10.9 4.39,-11.52 3.98,-12.03 3.57,-12.45 3.16,-12.75 2.75,-12.94 2.35,-13.02 1.95,-12.98 1.57,-12.84 1.2,-12.58 0.85,-12.22 0.52,-11.74 0.23,-11.17 -0.04,-10.51 -0.29,-9.75 -0.5,-8.92 -0.68,-8.01 -0.82,-7.03 -0.92,-5.99 -0.99,-4.92 -1.02,-3.8 -1.01,-2.65 -0.96,-1.49 -0.89,-0.32"
       stroke="#090909"
       stroke-width="3"
       fill="none"
       stroke-linejoin="round"
       id="path34" />
    <path
       d="m 860.88,469.07 6.98,-2.14 6.8,-3.22 6.61,-4.28 6.37,-5.29 6.12,-6.27 5.84,-7.18 5.53,-8.02 5.21,-8.81 4.87,-9.51 4.51,-10.12 4.16,-10.65 3.78,-11.09 3.42,-11.42 3.03,-11.66 2.67,-11.8 2.31,-11.83 1.94,-11.77 1.61,-11.59 1.28,-11.32 0.97,-10.96 0.69,-10.49 0.42,-9.95 0.19,-9.31 -0.03,-8.61 -0.2,-7.82 -0.35,-6.97 -0.47,-6.07 -0.55,-5.12 -0.6,-4.13 -0.62,-3.1 -0.59,-2.06 -0.54,-1.01"
       stroke="#090909"
       stroke-width="3"
       fill="none"
       stroke-linejoin="round"
       id="path35" />
    <path
       d="m 400.86,538.8 7.84,-2.04 7.64,-3.38 7.42,-4.67 7.15,-5.92 6.85,-7.13 6.52,-8.27 6.17,-9.33 5.77,-10.31 5.38,-11.2 4.95,-11.99 4.51,-12.68 4.07,-13.26 3.61,-13.71 3.16,-14.05 2.7,-14.26 2.26,-14.36 1.82,-14.32 1.4,-14.16 0.98,-13.88 0.61,-13.48 0.24,-12.96 -0.08,-12.34 -0.4,-11.6 -0.66,-10.77 -0.89,-9.85 -1.09,-8.84 -1.25,-7.77 -1.37,-6.62 -1.44,-5.43 -1.48,-4.2 -1.47,-2.92 -1.42,-1.64 -1.33,-0.34"
       stroke="#090909"
       stroke-width="3"
       fill="none"
       stroke-linejoin="round"
       id="path36" />
    <path
       d="m 618.74,505.71 7.4,-2.33 7.21,-3.53 6.99,-4.71 6.73,-5.85 6.45,-6.92 6.14,-7.95 5.8,-8.89 5.44,-9.77 5.06,-10.55 4.67,-11.24 4.27,-11.84 3.85,-12.32 3.44,-12.7 3.02,-12.97 2.61,-13.13 2.2,-13.17 1.8,-13.09 1.43,-12.91 1.05,-12.62 0.72,-12.2 0.39,-11.7 0.09,-11.09 -0.17,-10.38 -0.4,-9.6 -0.61,-8.72 -0.77,-7.77 -0.91,-6.77 -1,-5.71 -1.05,-4.6 -1.07,-3.46 -1.05,-2.29 -0.99,-1.11"
       stroke="#090909"
       stroke-width="3"
       fill="none"
       stroke-linejoin="round"
       id="path37" />
    <path
       d="m 836.34,472.55 6.96,-2.53 6.79,-3.62 6.57,-4.67 6.33,-5.69 6.07,-6.66 5.76,-7.55 5.46,-8.4 5.12,-9.16 4.78,-9.84 4.41,-10.44 4.04,-10.94 3.67,-11.35 3.29,-11.65 2.91,-11.87 2.54,-11.97 2.17,-11.96 1.81,-11.87 1.48,-11.66 1.15,-11.35 0.84,-10.95 0.56,-10.46 0.3,-9.87 0.07,-9.2 -0.13,-8.45 -0.3,-7.64 -0.44,-6.77 -0.55,-5.83 -0.62,-4.85 -0.66,-3.84 -0.66,-2.79 -0.63,-1.73 -0.57,-0.66"
       stroke="#090909"
       stroke-width="3"
       fill="none"
       stroke-linejoin="round"
       id="path38" />
    <path
       d="m 376.59,542.34 7.82,-2.51 7.62,-3.85 7.37,-5.14 7.1,-6.39 6.78,-7.59 6.44,-8.71 6.07,-9.77 5.67,-10.72 5.25,-11.6 4.83,-12.35 4.37,-13.02 3.93,-13.56 3.46,-13.98 3.01,-14.28 2.54,-14.45 2.1,-14.51 1.66,-14.43 1.24,-14.23 0.83,-13.9 0.46,-13.46 0.09,-12.9 -0.23,-12.23 -0.52,-11.45 -0.78,-10.58 -1.01,-9.63 -1.2,-8.58 -1.34,-7.47 -1.45,-6.3 -1.51,-5.07 -1.53,-3.81 -1.5,-2.53 -1.45,-1.21"
       stroke="#090909"
       stroke-width="3"
       fill="none"
       stroke-linejoin="round"
       id="path39" />
    <path
       d="m 594.33,509.13 7.39,-2.76 7.18,-3.96 6.95,-5.15 6.69,-6.28 6.38,-7.35 6.06,-8.36 5.71,-9.29 5.34,-10.15 4.95,-10.91 4.56,-11.57 4.14,-12.15 3.72,-12.6 3.3,-12.94 2.88,-13.18 2.46,-13.31 2.06,-13.3 1.65,-13.2 1.28,-12.97 0.91,-12.63 0.58,-12.18 0.25,-11.64 -0.03,-10.99 -0.29,-10.24 -0.52,-9.42 -0.71,-8.51 -0.87,-7.54 -0.99,-6.49 -1.07,-5.41 -1.12,-4.27 -1.12,-3.11 -1.08,-1.92 -1.02,-0.72"
       stroke="#090909"
       stroke-width="3"
       fill="none"
       stroke-linejoin="round"
       id="path40" />
    <path
       d="m 804.68,477.69 7.12,-1.81 6.96,-2.92 6.76,-4.02 6.54,-5.07 6.28,-6.09 6,-7.04 5.7,-7.94 5.37,-8.76 5.03,-9.51 4.68,-10.17 4.3,-10.74 3.93,-11.23 3.54,-11.6 3.17,-11.88 2.78,-12.06 2.4,-12.13 2.04,-12.09 1.68,-11.96 1.34,-11.71 1.02,-11.37 0.71,-10.93 0.44,-10.4 0.18,-9.78 -0.04,-9.07 -0.23,-8.3 -0.4,-7.44 -0.53,-6.54 -0.63,-5.58 -0.68,-4.58 -0.72,-3.54 -0.71,-2.47 -0.66,-1.39 -0.58,-0.3"
       stroke="#090909"
       stroke-width="3"
       fill="none"
       stroke-linejoin="round"
       id="path41" />
    <path
       d="m 429.87,232.9 8,1 8.04,2.31 8.04,3.59 7.99,4.83 7.91,6.02 7.78,7.15 7.61,8.22 7.4,9.21 7.17,10.1 6.88,10.91 6.58,11.62 6.24,12.21 5.88,12.69 5.49,13.06 5.09,13.3 4.67,13.44 4.24,13.43 3.8,13.32 3.36,13.08 2.92,12.72 2.48,12.25 2.05,11.68 1.63,10.98 1.23,10.2 0.85,9.32 0.48,8.37 0.15,7.33 -0.16,6.24 -0.43,5.08 -0.68,3.89 -0.88,2.65 -1.06,1.4"
       stroke="#090909"
       stroke-width="3"
       fill="none"
       stroke-linejoin="round"
       id="path42" />
    <path
       d="m 649.96,225.68 7.62,1.31 7.64,2.5 7.62,3.65 7.56,4.78 7.48,5.85 7.34,6.86 7.18,7.81 6.97,8.69 6.75,9.48 6.48,10.18 6.18,10.79 5.87,11.3 5.54,11.71 5.17,11.99 4.8,12.19 4.41,12.26 4.02,12.22 3.61,12.08 3.21,11.81 2.81,11.46 2.41,10.99 2.02,10.42 1.64,9.76 1.28,9.01 0.94,8.19 0.62,7.29 0.32,6.32 0.05,5.3 -0.19,4.23 -0.4,3.13 -0.58,2 -0.72,0.85"
       stroke="#090909"
       stroke-width="3"
       fill="none"
       stroke-linejoin="round"
       id="path43" />
    <path
       d="m 862.62,218.1 7.18,0.45 7.22,1.54 7.23,2.6 7.2,3.65 7.14,4.65 7.04,5.6 6.91,6.51 6.75,7.34 6.56,8.1 6.34,8.8 6.08,9.4 5.82,9.92 5.52,10.35 5.2,10.67 4.88,10.91 4.53,11.04 4.17,11.07 3.82,11 3.45,10.83 3.09,10.57 2.72,10.19 2.37,9.75 2.01,9.19 1.68,8.58 1.36,7.87 1.06,7.09 0.77,6.26 0.52,5.37 0.28,4.43 0.07,3.45 -0.11,2.44 -0.26,1.41 -0.37,0.37"
       stroke="#090909"
       stroke-width="3"
       fill="none"
       stroke-linejoin="round"
       id="path44" />
    <path
       d="m 454.43,231.94 7.93,0.55 7.98,1.86 7.99,3.13 7.97,4.37 7.89,5.57 7.77,6.71 7.63,7.79 7.43,8.79 7.2,9.7 6.94,10.54 6.65,11.27 6.32,11.89 5.97,12.4 5.6,12.81 5.2,13.09 4.8,13.26 4.37,13.3 3.94,13.22 3.5,13.03 3.07,12.71 2.63,12.28 2.2,11.75 1.79,11.09 1.38,10.36 1,9.51 0.63,8.6 0.29,7.59 -0.02,6.53 -0.31,5.41 -0.56,4.24 -0.78,3.02 -0.95,1.8 -1.1,0.54"
       stroke="#090909"
       stroke-width="3"
       fill="none"
       stroke-linejoin="round"
       id="path45" />
    <path
       d="m 674.63,224.59 7.55,0.9 7.58,2.07 7.58,3.24 7.54,4.35 7.46,5.43 7.35,6.46 7.18,7.41 7.01,8.31 6.78,9.11 6.53,9.84 6.25,10.47 5.95,11.01 5.62,11.44 5.27,11.77 4.9,11.99 4.53,12.1 4.14,12.1 3.74,11.99 3.34,11.77 2.94,11.44 2.55,11.02 2.16,10.49 1.79,9.86 1.42,9.16 1.08,8.37 0.75,7.49 0.45,6.57 0.17,5.57 -0.07,4.54 -0.29,3.45 -0.48,2.34 -0.63,1.21"
       stroke="#090909"
       stroke-width="3"
       fill="none"
       stroke-linejoin="round"
       id="path46" />
    <path
       d="m 894.57,217.35 7.17,1.16 7.18,2.22 7.16,3.26 7.12,4.27 7.02,5.22 6.92,6.13 6.76,6.97 6.58,7.76 6.37,8.46 6.13,9.09 5.87,9.63 5.59,10.08 5.29,10.43 4.96,10.7 4.63,10.86 4.28,10.92 3.93,10.89 3.57,10.75 3.2,10.52 2.85,10.19 2.49,9.77 2.15,9.26 1.81,8.67 1.49,7.99"
       stroke="#090909"
       stroke-width="3"
       fill="none"
       stroke-linejoin="round"
       id="path47" />
    <path
       d="m 381.26,387.27 4.31,14.33 3.84,14.2 3.37,13.95 2.9,13.58 2.44,13.07 1.97,12.46 1.53,11.73 1.1,10.9 0.7,9.96 0.3,8.94 -0.05,7.85 -0.38,6.68 -0.67,5.44 -0.94,4.18 -1.15,2.86 -1.34,1.52"
       stroke="#090909"
       stroke-width="3"
       fill="none"
       stroke-linejoin="round"
       id="path48" />
    <path
       d="m 486.89,231.24 7.91,1.41 7.95,2.67 7.92,3.92 7.87,5.12 7.77,6.27 7.63,7.35 7.46,8.37 7.24,9.31 6.99,10.16 6.71,10.91 6.4,11.57 6.06,12.11 5.69,12.54 5.32,12.87 4.91,13.07 4.5,13.15 4.07,13.11 3.65,12.96 3.21,12.68 2.78,12.3 2.35,11.8 1.94,11.2 1.53,10.49 1.15,9.69 0.78,8.81 0.43,7.84 0.11,6.81 -0.18,5.72 -0.43,4.57 -0.67,3.39 -0.85,2.18 -1.01,0.94"
       stroke="#090909"
       stroke-width="3"
       fill="none"
       stroke-linejoin="round"
       id="path49" />
    <path
       d="m 699.34,223.63 7.48,0.5 7.53,1.66 7.53,2.82 7.51,3.93 7.44,5.02 7.33,6.05 7.2,7.01 7.02,7.92 6.82,8.75 6.58,9.49 6.31,10.15 6.01,10.71 5.7,11.17 5.37,11.53 5,11.78 4.64,11.93 4.25,11.96 3.87,11.89 3.47,11.71 3.08,11.42 2.69,11.03 2.3,10.54 1.92,9.96 1.56,9.29 1.22,8.52 0.88,7.7 0.58,6.79 0.3,5.84 0.05,4.82 -0.18,3.76 -0.38,2.68 -0.54,1.56 -0.66,0.44"
       stroke="#090909"
       stroke-width="3"
       fill="none"
       stroke-linejoin="round"
       id="path50" />
    <path
       d="m 919.39,216.28 7.1,0.79 7.13,1.85 7.12,2.87 7.09,3.88 7.01,4.85 6.9,5.75 6.77,6.61 6.6,7.41 6.4,8.12 6.18,8.77 5.92,9.33 5.66,9.81 5.35,10.19 5.05,10.47 4.72,10.68 4.39,10.76"
       stroke="#090909"
       stroke-width="3"
       fill="none"
       stroke-linejoin="round"
       id="path51" />
    <path
       d="m 356.11,278.81 7.46,10.35 7.18,11.23 6.87,12.02 6.53,12.68 6.15,13.23 5.76,13.66 5.33,13.96 4.9,14.14 4.45,14.2 3.99,14.11 3.52,13.9 3.06,13.57 2.6,13.12 2.14,12.54 1.69,11.86 1.26,11.07 0.85,10.17 0.46,9.19 0.1,8.14 -0.24,6.99 -0.54,5.8 -0.81,4.55 -1.04,3.26 -1.24,1.95"
       stroke="#090909"
       stroke-width="3"
       fill="none"
       stroke-linejoin="round"
       id="path52" />
    <path
       d="m 511.46,230.13 7.85,0.97 7.88,2.23 7.89,3.47 7.84,4.67 7.76,5.82 7.63,6.93 7.47,7.95 7.27,8.9 7.04,9.78 6.77,10.55 6.47,11.23 6.14,11.81 5.79,12.28 5.42,12.63 5.03,12.86 4.62,12.99 4.21,12.99 3.78,12.88 3.35,12.64 2.93,12.3 2.5,11.84 2.09,11.27 1.68,10.61 1.29,9.86 0.93,9 0.57,8.08 0.25,7.08 -0.05,6.01 -0.31,4.9 -0.55,3.74 -0.75,2.55 -0.91,1.34"
       stroke="#090909"
       stroke-width="3"
       fill="none"
       stroke-linejoin="round"
       id="path53" />
    <path
       d="m 731.5,222.91 7.46,1.25 7.49,2.41 7.47,3.52 7.41,4.61 7.33,5.64 7.2,6.62 7.04,7.53 6.84,8.38 6.62,9.14 6.36,9.82 6.09,10.4 5.77,10.89 5.45,11.28 5.11,11.57 4.74,11.74 4.37,11.81 3.98,11.78 3.6,11.64 3.21,11.38 2.82,11.03 2.44,10.58 2.06,10.04 1.7,9.39 1.35,8.68 1.02,7.88 0.71,7.01 0.43,6.07 0.16,5.1 -0.07,4.06 -0.27,3 -0.44,1.91 -0.58,0.79"
       stroke="#090909"
       stroke-width="3"
       fill="none"
       stroke-linejoin="round"
       id="path54" />
    <path
       d="m 944.25,215.33 7.03,0.43 7.07,1.47 7.08,2.51 7.05,3.5 6.99,4.46 6.9,5.39 6.77,6.24 6.61,7.05"
       stroke="#090909"
       stroke-width="3"
       fill="none"
       stroke-linejoin="round"
       id="path55" />
    <path
       d="m 315.66,236.66 8.15,0.13 8.22,1.51 8.25,2.86 8.23,4.18 8.17,5.46 8.07,6.68 7.92,7.85 7.73,8.93 7.5,9.93 7.24,10.83 6.94,11.65 6.61,12.34 6.25,12.92 5.86,13.39 5.45,13.74 5.03,13.95 4.59,14.04 4.13,14 3.68,13.84 3.21,13.55 2.75,13.14 2.3,12.61 1.85,11.97 1.43,11.22 1,10.37 0.62,9.43 0.25,8.4 -0.1,7.3 -0.41,6.14 -0.68,4.91 -0.92,3.65 -1.13,2.36 -1.3,1.04"
       stroke="#090909"
       stroke-width="3"
       fill="none"
       stroke-linejoin="round"
       id="path56" />
    <path
       d="m 536.07,229.17 7.77,0.54 7.84,1.79 7.84,3.02 7.81,4.23 7.74,5.38 7.63,6.49 7.48,7.53 7.29,8.5 7.08,9.39 6.82,10.19 6.53,10.89 6.22,11.5 5.88,11.99 5.52,12.38 5.14,12.66 4.74,12.81 4.34,12.86 3.91,12.77 3.49,12.59 3.07,12.28 2.65,11.87 2.24,11.34 1.83,10.72 1.44,10 1.07,9.18 0.72,8.3 0.38,7.33 0.09,6.29 -0.19,5.22 -0.44,4.07 -0.64,2.91 -0.81,1.72 -0.96,0.51"
       stroke="#090909"
       stroke-width="3"
       fill="none"
       stroke-linejoin="round"
       id="path57" />
    <path
       d="m 756.22,221.82 7.4,0.86 7.43,2 7.43,3.12 7.38,4.19 7.31,5.24 7.2,6.22 7.05,7.15 6.87,8 6.65,8.79 6.42,9.48 6.14,10.09 5.85,10.61 5.53,11.02 5.19,11.34 4.85,11.55 4.48,11.65 4.1,11.66 3.72,11.54 3.34,11.34 2.95,11.01 2.57,10.61 2.2,10.09 1.84,9.5 1.48,8.81 1.16,8.04 0.84,7.21 0.55,6.31 0.28,5.36 0.05,4.35 -0.16,3.3 -0.35,2.24 -0.48,1.15"
       stroke="#090909"
       stroke-width="3"
       fill="none"
       stroke-linejoin="round"
       id="path58" />
    <path
       d="m 348.28,235.67 8.15,1.04 8.2,2.39 8.19,3.7 8.14,4.99 8.06,6.21 7.92,7.39 7.75,8.49 7.54,9.51 7.29,10.43 7,11.27 6.69,11.99 6.34,12.61 5.96,13.11 5.57,13.49 5.15,13.75 4.72,13.87 4.28,13.88 3.82,13.77 3.36,13.51 2.91,13.15 2.46,12.66 2.01,12.07 1.58,11.35 1.17,10.55 0.77,9.65 0.39,8.65 0.05,7.59 -0.27,6.46 -0.55,5.26 -0.81,4.03 -1.02,2.76 -1.2,1.46"
       stroke="#090909"
       stroke-width="3"
       fill="none"
       stroke-linejoin="round"
       id="path59" />
    <path
       d="m 568.42,228.46 7.77,1.36 7.79,2.58 7.78,3.79 7.71,4.95 7.63,6.06 7.48,7.11 7.32,8.09 7.11,9 6.86,9.81 6.6,10.55 6.29,11.18 5.97,11.71 5.61,12.12 5.24,12.43 4.86,12.63 4.46,12.7 4.04,12.67 3.63,12.52 3.21,12.25 2.79,11.87 2.39,11.4 1.98,10.81 1.58,10.12 1.22,9.36 0.86,8.49 0.52,7.57 0.22,6.56 -0.07,5.51 -0.31,4.41 -0.53,3.26 -0.72,2.08 -0.86,0.9"
       stroke="#090909"
       stroke-width="3"
       fill="none"
       stroke-linejoin="round"
       id="path60" />
    <path
       d="m 780.98,220.87 7.33,0.47 7.37,1.6 7.38,2.71 7.36,3.79 7.29,4.84 7.19,5.82 7.05,6.76 6.89,7.63 6.68,8.43 6.46,9.14 6.2,9.78 5.92,10.31 5.6,10.76 5.29,11.1 4.94,11.35 4.58,11.48 4.22,11.52 3.84,11.44 3.46,11.27 3.08,10.99 2.71,10.62 2.33,10.14 1.97,9.58 1.62,8.93 1.29,8.2 0.97,7.39 0.68,6.53 0.4,5.6 0.17,4.62 -0.06,3.61 -0.24,2.56 -0.4,1.49 -0.52,0.4"
       stroke="#090909"
       stroke-width="3"
       fill="none"
       stroke-linejoin="round"
       id="path61" />
    <path
       d="m 372.79,234.71 8.08,0.57 8.13,1.92 8.15,3.24 8.11,4.51 8.05,5.75 7.92,6.94 7.77,8.04 7.56,9.08 7.34,10.03 7.06,10.88 6.76,11.64 6.42,12.29 6.06,12.82 5.68,13.23 5.27,13.53 4.85,13.7 4.41,13.74 3.96,13.67 3.51,13.47 3.07,13.14 2.61,12.7 2.17,12.14 1.74,11.48 1.32,10.71 0.92,9.84 0.55,8.9 0.19,7.86 -0.13,6.76 -0.42,5.6 -0.69,4.4 -0.9,3.14 -1.1,1.87"
       stroke="#090909"
       stroke-width="3"
       fill="none"
       stroke-linejoin="round"
       id="path62" />
    <path
       d="m 593.04,227.36 7.7,0.93 7.74,2.16 7.73,3.35 7.69,4.51 7.61,5.63 7.49,6.69 7.33,7.68 7.14,8.61 6.9,9.44 6.65,10.2 6.36,10.85 6.05,11.41 5.7,11.85 5.35,12.2 4.96,12.43 4.58,12.54 4.17,12.55 3.76,12.43 3.35,12.21 2.93,11.87 2.53,11.43 2.13,10.88 1.73,10.24 1.36,9.5 1,8.69 0.66,7.79 0.35,6.82 0.06,5.79 -0.19,4.72 -0.42,3.6 -0.62,2.44 -0.77,1.27"
       stroke="#090909"
       stroke-width="3"
       fill="none"
       stroke-linejoin="round"
       id="path63" />
    <path
       d="m 813.04,220.13 7.31,1.21 7.33,2.31 7.32,3.39 7.26,4.44 7.18,5.43 7.06,6.37 6.9,7.26 6.71,8.06 6.49,8.8 6.25,9.46 5.98,10.01 5.68,10.49 5.37,10.86 5.03,11.13 4.69,11.3 4.32,11.37 3.96,11.33 3.58,11.19 3.21,10.96 2.84,10.61 2.46,10.17 2.11,9.65 1.75,9.03 1.42,8.34 1.1,7.56 0.8,6.74 0.53,5.83 0.28,4.88 0.06,3.9 -0.14,2.86 -0.31,1.82 -0.43,0.75"
       stroke="#090909"
       stroke-width="3"
       fill="none"
       stroke-linejoin="round"
       id="path64" />
    <path
       d="m 397.35,233.89 8,0.13 8.07,1.45 8.09,2.77 8.08,4.05 8.02,5.29 7.92,6.47 7.78,7.6 7.59,8.65 7.37,9.62 7.12,10.5 6.82,11.28 6.5,11.95 6.16,12.52 5.78,12.97 5.38,13.3 4.97,13.51 4.54,13.59 4.11,13.56 3.66,13.4 3.21,13.12 2.77,12.72 2.32,12.2 1.9,11.58 1.48,10.86 1.07,10.03 0.7,9.12 0.34,8.12 0.01,7.06 -0.3,5.92 -0.56,4.75 -0.79,3.52 -0.99,2.26 -1.15,1"
       stroke="#090909"
       stroke-width="3"
       fill="none"
       stroke-linejoin="round"
       id="path65" />
    <path
       d="m 617.7,226.4 7.63,0.52 7.68,1.72 7.69,2.92 7.66,4.09 7.59,5.2 7.48,6.26 7.34,7.28 7.16,8.21 6.94,9.07 6.7,9.84 6.42,10.52 6.12,11.1 5.79,11.58 5.44,11.96 5.08,12.22 4.69,12.37 4.29,12.4 3.89,12.34 3.48,12.15 3.08,11.85 2.66,11.45 2.27,10.94 1.88,10.34 1.5,9.64 1.14,8.85 0.81,8 0.48,7.06 0.19,6.07 -0.07,5.01 -0.31,3.92 -0.51,2.8 -0.67,1.64 -0.81,0.47"
       stroke="#090909"
       stroke-width="3"
       fill="none"
       stroke-linejoin="round"
       id="path66" />
    <path
       d="m 837.81,219.05 7.24,0.83 7.28,1.92 7.28,3 7.23,4.03 7.17,5.04 7.05,5.99 6.91,6.88 6.73,7.7 6.53,8.46 6.29,9.12 6.04,9.72 5.75,10.2 5.44,10.61 5.12,10.91 4.79,11.11 4.43,11.21 4.07,11.2 3.7,11.11 3.33,10.89 2.96,10.6 2.59,10.19 2.24,9.7 1.89,9.12 1.55,8.47 1.23,7.72 0.93,6.92 0.65,6.05 0.39,5.14 0.17,4.16 -0.03,3.17 -0.21,2.13 -0.35,1.09"
       stroke="#090909"
       stroke-width="3"
       fill="none"
       stroke-linejoin="round"
       id="path67" />
  </g>
  <path
     d="m 165.91784,549.99569 1.6,-0.23 1.59,-0.37 1.57,-0.54 1.55,-0.68 1.53,-0.83 1.51,-0.99 1.49,-1.13 1.46,-1.29 1.43,-1.43 1.41,-1.58 1.38,-1.72 1.34,-1.86 1.32,-2.01 1.28,-2.14 1.25,-2.28 1.21,-2.41 1.18,-2.55 1.13,-2.68 1.1,-2.8 1.06,-2.93 1.02,-3.05 0.97,-3.16 0.94,-3.29 0.88,-3.39 0.85,-3.5 0.79,-3.61 0.75,-3.71 0.71,-3.81 0.65,-3.9 0.61,-3.99 0.56,-4.08 0.51,-4.16 0.45,-4.24 0.41,-4.31 0.35,-4.38 0.31,-4.45 0.25,-4.51 0.2,-4.57 0.15,-4.61 0.09,-4.67 0.05,-4.71 -0.01,-4.74 -0.06,-4.78 -0.12,-4.81 -0.17,-4.83 -0.21,-4.86 -0.28,-4.86 -0.32,-4.88 -0.37,-4.88 -0.43,-4.88 -0.47,-4.88 -0.53,-4.87 -0.57,-4.85 -0.63,-4.83 -0.67,-4.81 -0.72,-4.79 -0.77,-4.74 -0.81,-4.71 -0.86,-4.67 -0.91,-4.62 -0.95,-4.57 -0.99,-4.51 -1.03,-4.46 -1.07,-4.38 -1.11,-4.32 -1.16,-4.24 -1.19,-4.17 -1.22,-4.08 -1.26,-4 -1.3,-3.9 -1.32,-3.82 -1.36,-3.71 -1.39,-3.62 -1.42,-3.51 -1.44,-3.4 -1.47,-3.29 -1.5,-3.17 -1.51,-3.06 -1.54,-2.93 -1.56,-2.81 -1.58,-2.69 -1.59,-2.55 -1.61,-2.43 -1.62,-2.28 -1.63,-2.16 -1.65,-2.01 -1.65,-1.87 -1.66,-1.73 -1.67,-1.59 -1.67,-1.44 -1.67,-1.29 -1.67,-1.15 -1.67,-0.99 -1.67,-0.84 -1.66,-0.7 -1.66,-0.54 -1.65,-0.39 -1.64,-0.23 -1.63,-0.08 -1.62,0.07 -1.6,0.23 -1.59,0.37 -1.57,0.54 -1.55,0.68 -1.53,0.83 -1.51,0.99 -1.49,1.13 -1.46,1.29 -1.43,1.43 -1.41,1.58 -1.38,1.72 -1.34,1.86 -1.32,2.01 -1.28,2.14 -1.25,2.28 -1.21,2.41 -1.18,2.55 -1.13,2.68 -1.1,2.8 -1.06,2.93 -1.02,3.05 -0.97,3.16 -0.94,3.29 -0.88,3.39 -0.85,3.5 -0.79,3.61 -0.75,3.71 -0.71,3.81 -0.65,3.9 -0.61,3.99 -0.56,4.08 -0.51,4.16 -0.45,4.24 -0.410002,4.31 -0.35,4.38 -0.31,4.45 -0.25,4.51 -0.2,4.57 -0.15,4.61 -0.09,4.67 -0.05,4.71 0.01,4.74 0.06,4.78 0.12,4.81 0.17,4.83 0.21,4.86 0.28,4.86 0.32,4.88 0.37,4.88 0.430002,4.88 0.47,4.88 0.53,4.87 0.57,4.85 0.63,4.83 0.67,4.81 0.72,4.79 0.77,4.74 0.81,4.71 0.86,4.67 0.91,4.62 0.95,4.57 0.99,4.51 1.03,4.46 1.07,4.38 1.11,4.32 1.16,4.24 1.19,4.17 1.22,4.08 1.26,4 1.3,3.9 1.32,3.82 1.36,3.71 1.39,3.62 1.42,3.51 1.44,3.4 1.47,3.29 1.5,3.17 1.51,3.06 1.54,2.93 1.56,2.81 1.58,2.69 1.59,2.55 1.61,2.43 1.62,2.28 1.63,2.16 1.65,2.01 1.65,1.87 1.66,1.73 1.67,1.59 1.67,1.44 1.67,1.29 1.67,1.15 1.67,0.99 1.67,0.84 1.66,0.7 1.66,0.54 1.65,0.39 1.64,0.23 1.63,0.08 z"
     stroke="#090909"
     stroke-width="5.5"
     fill="none"
     id="path68" />
  <path
     d="m 601.57784,700.65569 h 32.13 c 50.70515,0.0553 155.28617,-31.96824 162.25705,-86.40753 -3.29891,-42.20191 -109.62944,-38.47416 -114.58595,-57.38119 -1.0472,-9.95698 27.79839,-18.97886 36.53812,-28.88632 9.4369,-10.69778 2.30452,-28.19495 6.93085,-38.26374 5.051,-10.99301 16.64591,-17.95555 24.36451,-30.21586 l -2.2332,-0.45374 c -7.50722,10.84252 -19.22699,18.14952 -24.69086,28.94883 -6.17934,12.21341 -0.68787,30.48347 -9.90335,38.18676 -13.10973,10.95852 -39.32121,20.97873 -42.60407,31.75665 -3.86133,15.79039 99.35434,34.02219 101.17395,52.21861 -7.43241,27.11618 -107.46549,36.84225 -137.85705,38.49753 h -31.52 z"
     fill="#090909"
     id="path69"
     sodipodi:nodetypes="ccccssccssccccc" />
  <rect
     style="fill:#090909;fill-opacity:1;stroke:#090909;stroke-width:0.588499;stroke-dasharray:none;stroke-opacity:1"
     id="rect70"
     width="37.099678"
     height="158.77336"
     x="130.08235"
     y="404.24136" />
  <ellipse
     style="fill:#090909;fill-opacity:1;stroke:#090909;stroke-width:1.02218;stroke-dasharray:none;stroke-opacity:1"
     id="path70"
     cx="148.63821"
     cy="405.32571"
     rx="18.312263"
     ry="17.436514" />
</svg>
